<?xml version="1.0" encoding="UTF-8"?>
<svg version="1.1" xmlns="http://www.w3.org/2000/svg" width="280" height="240">
<path d="M0 0 C1.08084291 -0.00339833 1.08084291 -0.00339833 2.18352103 -0.00686532 C4.5984989 -0.01319638 7.01342051 -0.01237652 9.42840576 -0.0115509 C11.15983655 -0.014543 12.89126668 -0.01794565 14.62269592 -0.02172852 C19.32739519 -0.03056879 24.03207626 -0.03290668 28.73678303 -0.0335443 C31.67699943 -0.03425493 34.6172112 -0.03638953 37.55742645 -0.03904152 C47.8176452 -0.04829589 58.07785095 -0.0523764 68.33807373 -0.05158997 C77.89695215 -0.05098954 87.45577406 -0.06153428 97.01463819 -0.07733363 C105.22454508 -0.09041899 113.43443353 -0.09577342 121.64435077 -0.09513456 C126.54623827 -0.09487981 131.44807559 -0.09771803 136.3499527 -0.10831261 C140.9628223 -0.11801001 145.57559393 -0.11806148 150.18846703 -0.11079597 C151.87829672 -0.10975209 153.56813257 -0.11210135 155.25795174 -0.11815643 C157.57157747 -0.12590746 159.8848675 -0.12121117 162.19848633 -0.11352539 C163.49117558 -0.11407016 164.78386482 -0.11461493 166.11572647 -0.1151762 C170.28265376 0.16231054 173.8390242 1.01144442 177.85321045 2.13371277 C177.85321045 2.79371277 177.85321045 3.45371277 177.85321045 4.13371277 C178.74653076 4.2787323 178.74653076 4.2787323 179.65789795 4.42668152 C182.31031145 5.28092857 183.22792938 6.30647125 184.97821045 8.44621277 C185.47578857 9.04047058 185.9733667 9.63472839 186.48602295 10.24699402 C191.47470148 17.13137039 190.99590578 24.74224153 190.96673584 32.91252136 C190.96688187 33.98629028 190.96702789 35.0600592 190.96717834 36.16636658 C190.96648334 39.7049819 190.95871021 43.24354417 190.9508667 46.78215027 C190.94900106 49.23980175 190.94757784 51.6974536 190.94657898 54.15510559 C190.94276533 60.61592134 190.93294486 67.07671452 190.921875 73.53752136 C190.91163613 80.13338414 190.90707605 86.72925058 190.90203857 93.32511902 C190.89132157 106.26132655 190.87445185 119.19751846 190.85321045 132.13371277 C191.86351318 132.11558533 192.87381592 132.09745789 193.91473389 132.07878113 C195.26401319 132.06411505 196.61329743 132.0498974 197.96258545 132.03605652 C199.28226318 132.01792908 200.60194092 131.99980164 201.96160889 131.98112488 C214.78275421 132.48383603 226.45711228 139.79860613 235.0758667 148.98136902 C244.58931518 160.50205059 248.1491503 173.37096236 247.08514404 188.08244324 C246.09256047 196.86106133 242.52085084 204.73052903 237.85321045 212.13371277 C237.19321045 212.13371277 236.53321045 212.13371277 235.85321045 212.13371277 C235.62633545 212.69058777 235.39946045 213.24746277 235.16571045 213.82121277 C233.47771009 216.79530864 231.38644528 218.85380142 228.85321045 221.13371277 C228.19321045 221.13371277 227.53321045 221.13371277 226.85321045 221.13371277 C226.85321045 221.79371277 226.85321045 222.45371277 226.85321045 223.13371277 C212.1367149 230.96297214 199.66312315 234.80324624 182.8961792 230.19621277 C170.63427554 225.91477786 170.63427554 225.91477786 166.85321045 222.13371277 C165.09974663 222.03173874 163.34215989 222.00017596 161.58573914 221.99568176 C160.44318665 221.99022842 159.30063416 221.98477509 158.12345886 221.97915649 C156.85857132 221.97811417 155.59368378 221.97707184 154.29046631 221.97599792 C152.95356071 221.97133185 151.61665671 221.96618864 150.27975464 221.96060181 C147.39322495 221.94930013 144.50670572 221.94087573 141.62016106 221.93448257 C137.05177323 221.92381618 132.48345984 221.90357257 127.91511536 221.88136292 C114.92161489 221.81940078 101.92811748 221.76549484 88.93450928 221.73234558 C81.76385575 221.71397122 74.59332567 221.68499505 67.42276293 221.64434087 C63.62858631 221.62330809 59.83456505 221.60781902 56.04032707 221.6055336 C52.46566973 221.60337816 48.89133517 221.58741826 45.31677628 221.56114388 C43.38843367 221.55058209 41.46002794 221.55469129 39.53166199 221.55932617 C31.63284057 221.48393928 25.92803603 220.63417392 19.10321045 216.44621277 C11.46055095 208.59125717 12.3045026 199.54412445 12.39910889 189.34465027 C12.40023829 187.6390587 12.39960169 185.93346519 12.39733887 184.22787476 C12.39619441 179.61468735 12.41966006 175.00191865 12.4476347 170.38882828 C12.47269326 165.56154267 12.47499386 160.73424674 12.47973633 155.90690613 C12.49215302 146.77330233 12.52495695 137.63989077 12.56513429 128.5063715 C12.60989266 118.10496002 12.63184926 107.70353921 12.65191603 97.30205536 C12.69369073 75.91250067 12.76401738 54.52311884 12.85321045 33.13371277 C11.97060547 33.1441864 11.08800049 33.15466003 10.1786499 33.16545105 C6.88923507 33.19963241 3.60001031 33.22465987 0.31048584 33.24357605 C-1.11044299 33.25360423 -2.53135133 33.26723018 -3.95220947 33.28459167 C-6.00019399 33.30898098 -8.04790453 33.32022767 -10.0960083 33.32902527 C-11.32666016 33.3394989 -12.55731201 33.34997253 -13.82525635 33.36076355 C-17.04964258 33.14035347 -19.25313836 32.52170479 -22.14678955 31.13371277 C-22.14678955 30.47371277 -22.14678955 29.81371277 -22.14678955 29.13371277 C-22.80678955 29.13371277 -23.46678955 29.13371277 -24.14678955 29.13371277 C-26.17842225 24.94347032 -26.67888152 21.77051423 -26.14678955 17.13371277 C-24.79057613 13.61277409 -23.27170821 10.25824105 -21.14678955 7.13371277 C-20.15678955 6.80371277 -19.16678955 6.47371277 -18.14678955 6.13371277 C-18.14678955 5.47371277 -18.14678955 4.81371277 -18.14678955 4.13371277 C-11.74047135 1.30014895 -7.115445 0.00923525 0 0 Z " fill="#DDCDAC" transform="translate(28.14678955078125,2.8662872314453125)"/>
<path d="M0 0 C0.33 0 0.66 0 1 0 C1 36.3 1 72.6 1 110 C5.95 110 10.9 110 16 110 C30.26890605 113.56722651 42.23701501 121.26093362 50.25 133.75 C56.98597196 145.87843039 58.98177365 158.06993632 56.26953125 171.66015625 C54.37635746 178.26694642 51.66223475 184.19145554 48 190 C47.34 190 46.68 190 46 190 C45.773125 190.556875 45.54625 191.11375 45.3125 191.6875 C43.62449964 194.66159588 41.53323483 196.72008865 39 199 C38.34 199 37.68 199 37 199 C37 199.66 37 200.32 37 201 C22.28350445 208.82925937 9.8099127 212.66953348 -6.95703125 208.0625 C-19.21893491 203.78106509 -19.21893491 203.78106509 -23 200 C-24.77122886 199.89145019 -26.54678859 199.85312555 -28.32130432 199.84178162 C-29.47541809 199.8319928 -30.62953186 199.82220398 -31.81861877 199.81211853 C-33.09607468 199.80636307 -34.37353058 199.8006076 -35.68969727 199.79467773 C-37.03958439 199.78510436 -38.38946848 199.77509461 -39.73934937 199.76467896 C-43.41477343 199.73756517 -47.09021042 199.71659079 -50.7656796 199.69667697 C-54.60275729 199.6748572 -58.43979485 199.64744896 -62.27684021 199.62062073 C-69.54768307 199.57063946 -76.81854814 199.52572087 -84.08943456 199.48259836 C-92.36502202 199.43327233 -100.64056923 199.37833707 -108.91611779 199.32291877 C-125.94404134 199.20901534 -142.97200223 199.1021946 -160 199 C-160 198.67 -160 198.34 -160 198 C-93.175 197.505 -93.175 197.505 -25 197 C-26.65 195.35 -28.3 193.7 -30 192 C-39.91007821 180.96073746 -42.10628441 169.2410191 -41.453125 154.83984375 C-41.01159945 149.03199877 -39.76157763 144.14579683 -37 139 C-36.56429687 138.1440625 -36.12859375 137.288125 -35.6796875 136.40625 C-28.86759163 124.04769356 -18.55522523 116.28003619 -5.3828125 111.6640625 C-3 111 -3 111 0 111 C0 74.37 0 37.74 0 0 Z " fill="#396F9E" transform="translate(218,25)"/>
<path d="M0 0 C33.99 0 67.98 0 103 0 C103.495 5.445 103.495 5.445 104 11 C107.1896688 21.83656207 112.05110135 30.05110135 120 38 C73.8 38 27.6 38 -20 38 C-16 36 -16 36 -12.5625 36.125 C-8.211358 35.97232835 -6.9614328 35.12595685 -4 32 C0.89638889 23.2384911 0.89638889 23.2384911 0 0 Z " fill="#AA9772" transform="translate(74,185)"/>
<path d="M0 0 C28.05 0 56.1 0 85 0 C85 4.95 85 9.9 85 15 C74.06503529 15.02312297 63.13007634 15.04091485 52.1950922 15.05181217 C47.11808982 15.0570411 42.04110411 15.06413892 36.96411133 15.07543945 C32.06879448 15.08626799 27.17349371 15.09227676 22.27816582 15.09487724 C20.40617049 15.09673155 18.53417609 15.10035228 16.66218758 15.10573006 C14.04959301 15.11294004 11.43706573 15.11399096 8.82446289 15.11352539 C8.04259613 15.11712067 7.26072937 15.12071594 6.45516968 15.12442017 C1.11405216 15.11405216 1.11405216 15.11405216 0 14 C0 9.38 0 4.76 0 0 Z " fill="#AA9873" transform="translate(116,44)"/>
<path d="M0 0 C27.72 0 55.44 0 84 0 C84 4.95 84 9.9 84 15 C56.28 15 28.56 15 0 15 C0 10.05 0 5.1 0 0 Z " fill="#A99772" transform="translate(117,91)"/>
<path d="M0 0 C1.0893097 -0.00128164 1.0893097 -0.00128164 2.20062566 -0.00258917 C4.63428415 -0.00423643 7.06787373 0.00126509 9.50152588 0.00672913 C11.24593606 0.00701119 12.99034636 0.0068529 14.73475647 0.00628662 C19.47198221 0.00599938 24.20918269 0.0118843 28.94640255 0.01886058 C33.89651805 0.02510629 38.8466341 0.02569888 43.79675293 0.02688599 C53.17123185 0.0299957 62.54569914 0.03820426 71.92017293 0.04823548 C82.59237061 0.05940776 93.26456884 0.06490988 103.93677092 0.06993091 C125.89097959 0.08038716 147.84517778 0.09797966 169.79937744 0.12025452 C169.79937744 0.45025452 169.79937744 0.78025452 169.79937744 1.12025452 C114.02937744 1.45025452 58.25937744 1.78025452 0.79937744 2.12025452 C3.10937744 3.44025452 5.41937744 4.76025452 7.79937744 6.12025452 C12.80149398 12.30708287 12.9514818 17.71988677 12.86187744 25.43275452 C12.85736572 26.17332092 12.852854 26.91388733 12.84820557 27.67689514 C12.83649919 29.4913835 12.81856642 31.30582986 12.79937744 33.12025452 C8.61848553 33.16986802 4.43775178 33.20607468 0.25665283 33.2301178 C-1.16427599 33.24014598 -2.58518434 33.25377193 -4.00604248 33.27113342 C-6.054027 33.29552273 -8.10173754 33.30676941 -10.14984131 33.31556702 C-11.38049316 33.32604065 -12.61114502 33.33651428 -13.87908936 33.3473053 C-17.10347559 33.12689521 -19.30697137 32.50824654 -22.20062256 31.12025452 C-22.20062256 30.46025452 -22.20062256 29.80025452 -22.20062256 29.12025452 C-22.86062256 29.12025452 -23.52062256 29.12025452 -24.20062256 29.12025452 C-26.23225526 24.93001207 -26.73271453 21.75705598 -26.20062256 17.12025452 C-24.84440914 13.59931584 -23.32554122 10.2447828 -21.20062256 7.12025452 C-20.21062256 6.79025452 -19.22062256 6.46025452 -18.20062256 6.12025452 C-18.20062256 5.46025452 -18.20062256 4.80025452 -18.20062256 4.12025452 C-11.76856018 1.27530385 -7.14643612 -0.00506122 0 0 Z " fill="#968768" transform="translate(28.20062255859375,2.8797454833984375)"/>
<path d="M0 0 C2.78447558 0.99445557 4.03358797 2.23406529 6.05078125 4.32592773 C7.93443445 6.2542768 9.88153269 8.1080657 11.83203125 9.96875 C13.36746123 11.45805118 14.90261101 12.94764128 16.4375 14.4375 C17.61989258 15.55705078 17.61989258 15.55705078 18.82617188 16.69921875 C19.57060547 17.42753906 20.31503906 18.15585938 21.08203125 18.90625 C22.1026062 19.88754883 22.1026062 19.88754883 23.14379883 20.88867188 C24.99557316 23.45008447 25.07697727 24.84150346 24.625 27.9375 C22.625 29.9375 22.625 29.9375 20.375 30.375 C16.29103882 29.7252789 14.56839134 27.81244038 11.625 24.9375 C11.625 24.2775 11.625 23.6175 11.625 22.9375 C10.696875 22.504375 10.696875 22.504375 9.75 22.0625 C7.625 20.9375 7.625 20.9375 5.625 18.9375 C5.59994385 20.20456787 5.5748877 21.47163574 5.54907227 22.77709961 C5.45518004 27.46047779 5.35491565 32.1437013 5.25268555 36.8269043 C5.20926759 38.85714104 5.16759774 40.88741592 5.12768555 42.91772461 C5.07014854 45.82938151 5.00640722 48.74084514 4.94140625 51.65234375 C4.91633751 53.02264992 4.91633751 53.02264992 4.89076233 54.42063904 C4.73887171 60.82362829 4.73887171 60.82362829 3.625 61.9375 C0.125 62.0625 0.125 62.0625 -3.375 61.9375 C-4.90291083 60.40958917 -4.53683457 59.00760592 -4.58032227 56.87670898 C-4.60026749 56.01589218 -4.62021271 55.15507538 -4.64076233 54.26817322 C-4.65747482 53.33276199 -4.67418732 52.39735077 -4.69140625 51.43359375 C-4.71218735 50.48057877 -4.73296844 49.52756378 -4.75437927 48.54566956 C-4.81998177 45.4888559 -4.87880918 42.43195344 -4.9375 39.375 C-4.98067506 37.30793337 -5.02428901 35.24087586 -5.06835938 33.17382812 C-5.17567401 28.09514405 -5.27691091 23.0163703 -5.375 17.9375 C-6.15746094 18.72084717 -6.93992188 19.50419434 -7.74609375 20.3112793 C-9.92898852 22.49194414 -12.11059857 24.65451562 -14.375 26.75 C-15.014375 27.35457031 -15.65375 27.95914063 -16.3125 28.58203125 C-18.89555555 30.27960753 -20.34165041 30.43141712 -23.375 29.9375 C-25.375 26.9375 -25.375 26.9375 -25.3125 24.57421875 C-24.0586942 21.04788994 -22.09141554 19.30049811 -19.375 16.75 C-15.92997294 13.67762047 -15.92997294 13.67762047 -13.375 9.9375 C-12.715 9.9375 -12.055 9.9375 -11.375 9.9375 C-11.375 9.2775 -11.375 8.6175 -11.375 7.9375 C-10.715 7.9375 -10.055 7.9375 -9.375 7.9375 C-9.375 7.2775 -9.375 6.6175 -9.375 5.9375 C-8.715 5.9375 -8.055 5.9375 -7.375 5.9375 C-7.375 5.2775 -7.375 4.6175 -7.375 3.9375 C-6.715 3.9375 -6.055 3.9375 -5.375 3.9375 C-5.375 3.2775 -5.375 2.6175 -5.375 1.9375 C-2.375 -0.0625 -2.375 -0.0625 0 0 Z " fill="#D5D2BE" transform="translate(225.375,154.0625)"/>
<path d="M0 0 C1.15518918 0.90484792 2.29885406 1.8244206 3.4375 2.75 C4.39462891 3.51570313 4.39462891 3.51570313 5.37109375 4.296875 C7.25191691 6.26339514 7.87986497 7.27868036 8 10 C6.8125 11.89453125 6.8125 11.89453125 5 13.8125 C4.35804687 14.50214844 3.71609375 15.19179687 3.0546875 15.90234375 C0.52636394 18.483541 -2.01598906 21.04680559 -4.6171875 23.5546875 C-6.10854485 24.97109777 -6.10854485 24.97109777 -7 27 C-7.66 27 -8.32 27 -9 27 C-9 27.66 -9 28.32 -9 29 C-10.875 31.125 -10.875 31.125 -13 33 C-13.66 33 -14.32 33 -15 33 C-15 33.66 -15 34.32 -15 35 C-15.66 35 -16.32 35 -17 35 C-17.66 36.32 -18.32 37.64 -19 39 C-19.66 39 -20.32 39 -21 39 C-21 39.66 -21 40.32 -21 41 C-21.66 41 -22.32 41 -23 41 C-23 41.66 -23 42.32 -23 43 C-26 45 -26 45 -28.4519043 44.82519531 C-32.90272895 43.38380532 -35.59205042 40.02283967 -38.8125 36.75 C-39.85180664 35.74646484 -39.85180664 35.74646484 -40.91210938 34.72265625 C-41.56630859 34.06652344 -42.22050781 33.41039062 -42.89453125 32.734375 C-43.49112549 32.13850586 -44.08771973 31.54263672 -44.70239258 30.92871094 C-46.36988429 28.45021902 -46.34856693 26.9309671 -46 24 C-44.57421875 22.1640625 -44.57421875 22.1640625 -42.6875 20.625 C-42.07261719 20.10164063 -41.45773438 19.57828125 -40.82421875 19.0390625 C-40.22222656 18.69617188 -39.62023438 18.35328125 -39 18 C-34.89608198 19.36797267 -33.370424 21.97637882 -30.71875 25.28515625 C-29.05069778 27.35315094 -29.05069778 27.35315094 -26 27 C-24.21727084 25.27448681 -22.6149629 23.5598877 -21 21.6875 C-20.02171374 20.58529859 -19.04118283 19.48508602 -18.05859375 18.38671875 C-17.55569824 17.82388184 -17.05280273 17.26104492 -16.53466797 16.68115234 C-12.52723129 12.29120501 -8.23241665 8.17067962 -4 4 C-2.66554197 2.66779232 -1.33178744 1.33487744 0 0 Z " fill="#3B72A1" transform="translate(102,78)"/>
<path d="M0 0 C3.40218955 1.45808124 4.95297781 4.02020714 7.1875 6.9375 C5.71789839 12.33289053 2.04039488 15.38917458 -1.875 19.125 C-3.15963032 20.36634248 -4.44228281 21.60973601 -5.72265625 22.85546875 C-6.29121338 23.39969482 -6.85977051 23.9439209 -7.44555664 24.50463867 C-8.92214397 25.91194563 -8.92214397 25.91194563 -9.8125 27.9375 C-10.4725 27.9375 -11.1325 27.9375 -11.8125 27.9375 C-11.8125 28.5975 -11.8125 29.2575 -11.8125 29.9375 C-12.4725 29.9375 -13.1325 29.9375 -13.8125 29.9375 C-14.4725 31.2575 -15.1325 32.5775 -15.8125 33.9375 C-16.4725 33.9375 -17.1325 33.9375 -17.8125 33.9375 C-18.06 34.515 -18.3075 35.0925 -18.5625 35.6875 C-19.99549988 38.26689979 -21.59674676 39.99871592 -23.8125 41.9375 C-24.4725 41.9375 -25.1325 41.9375 -25.8125 41.9375 C-25.8125 42.5975 -25.8125 43.2575 -25.8125 43.9375 C-27.55566406 44.65283203 -27.55566406 44.65283203 -29.8125 44.9375 C-31.82714844 43.56982422 -31.82714844 43.56982422 -33.921875 41.4921875 C-34.67597656 40.74453125 -35.43007812 39.996875 -36.20703125 39.2265625 C-36.98433594 38.42992187 -37.76164062 37.63328125 -38.5625 36.8125 C-39.35527344 36.0390625 -40.14804687 35.265625 -40.96484375 34.46875 C-41.71378906 33.71335938 -42.46273437 32.95796875 -43.234375 32.1796875 C-43.92112305 31.4872998 -44.60787109 30.79491211 -45.31542969 30.08154297 C-47.1571121 27.44396062 -47.28335909 26.09251108 -46.8125 22.9375 C-44.625 20.0625 -44.625 20.0625 -41.8125 17.9375 C-38.59602331 18.08698369 -37.18143532 18.59996343 -34.79296875 20.78515625 C-34.20128906 21.51605469 -33.60960938 22.24695313 -33 23 C-32.39542969 23.73347656 -31.79085937 24.46695313 -31.16796875 25.22265625 C-30.72066406 25.78855469 -30.27335937 26.35445312 -29.8125 26.9375 C-26.65134224 25.56766497 -25.8197908 24.9484362 -23.8125 21.9375 C-23.1525 21.9375 -22.4925 21.9375 -21.8125 21.9375 C-21.8125 21.2775 -21.8125 20.6175 -21.8125 19.9375 C-21.1525 19.9375 -20.4925 19.9375 -19.8125 19.9375 C-19.59722656 19.39351562 -19.38195312 18.84953125 -19.16015625 18.2890625 C-17.34870359 15.12820887 -14.85753977 12.80986204 -12.25 10.3125 C-8.58535984 6.97347098 -8.58535984 6.97347098 -5.8125 2.9375 C-5.1525 2.9375 -4.4925 2.9375 -3.8125 2.9375 C-3.8125 2.2775 -3.8125 1.6175 -3.8125 0.9375 C-1.8125 -0.0625 -1.8125 -0.0625 0 0 Z " fill="#3C71A0" transform="translate(102.8125,32.0625)"/>
<path d="M0 0 C4.2742558 1.5830577 6.26531794 4.50568404 9 8 C7.66000502 11.006818 6.20154709 12.99762609 3.8125 15.25 C1.38753604 17.60073037 -0.88502296 19.98158179 -3.0625 22.5625 C-8.16717429 28.49275942 -13.82738275 33.90606157 -19.38769531 39.40380859 C-21.60019788 41.59419954 -23.80060491 43.79645511 -26 46 C-29.63061667 44.46781315 -31.9863773 42.2816856 -34.75 39.5 C-35.54921875 38.7059375 -36.3484375 37.911875 -37.171875 37.09375 C-39 35 -39 35 -39 33 C-39.66 33 -40.32 33 -41 33 C-41 32.34 -41 31.68 -41 31 C-42.32 30.34 -43.64 29.68 -45 29 C-45.4375 26.875 -45.4375 26.875 -45 24 C-42.95580695 21.60411783 -40.74197701 19.56181132 -38 18 C-34.59048278 19.13650574 -33.62363724 20.25813125 -31.3125 22.9375 C-30.37857422 24.00291016 -30.37857422 24.00291016 -29.42578125 25.08984375 C-28 27 -28 27 -28 29 C-27.34 29 -26.68 29 -26 29 C-26 28.34 -26 27.68 -26 27 C-25.34 27 -24.68 27 -24 27 C-24 26.34 -24 25.68 -24 25 C-23.34 25 -22.68 25 -22 25 C-21.61714844 24.12710327 -21.61714844 24.12710327 -21.2265625 23.23657227 C-19.87583737 20.77359597 -18.38452615 19.17208019 -16.375 17.21484375 C-15.66859375 16.51939453 -14.9621875 15.82394531 -14.234375 15.10742188 C-13.12835938 14.03331055 -13.12835938 14.03331055 -12 12.9375 C-10.53943012 11.51140161 -9.08100233 10.08310516 -7.625 8.65234375 C-6.97789063 8.02320068 -6.33078125 7.39405762 -5.6640625 6.74584961 C-3.8083697 4.89948066 -3.8083697 4.89948066 -2 2 C-1.34 2 -0.68 2 0 2 C0 1.34 0 0.68 0 0 Z " fill="#3A71A1" transform="translate(101,125)"/>
<path d="M0 0 C1.3125 2.0625 1.3125 2.0625 2 4 C0.68 5.32 -0.64 6.64 -2 8 C-1.01 8.33 -0.02 8.66 1 9 C0.8811479 14.69267163 0.75686288 20.38519001 0.62768555 26.07763672 C0.58454872 28.01152376 0.54286004 29.94544369 0.50268555 31.87939453 C0.4444644 34.66969691 0.3809233 37.45983693 0.31640625 40.25 C0.29133751 41.533302 0.29133751 41.533302 0.26576233 42.8425293 C0.14127422 47.96209877 -0.28173021 52.92865741 -1 58 C-2.65 58 -4.3 58 -6 58 C-7.13019427 55.73961146 -7.15268957 54.42881174 -7.20532227 51.91748047 C-7.22526749 51.07675995 -7.24521271 50.23603943 -7.26576233 49.36984253 C-7.28247482 48.46146637 -7.29918732 47.55309021 -7.31640625 46.6171875 C-7.33718735 45.68778351 -7.35796844 44.75837952 -7.37937927 43.80081177 C-7.44487646 40.8256179 -7.50376052 37.85033423 -7.5625 34.875 C-7.60568506 32.86066772 -7.64929934 30.84634459 -7.69335938 28.83203125 C-7.80055803 23.88811337 -7.90182501 18.94410497 -8 14 C-8.99 13.67 -9.98 13.34 -11 13 C-11 12.34 -11 11.68 -11 11 C-14.30174424 12.78833727 -14.30174424 12.78833727 -15.375 16.5 C-17 20 -17 20 -19.6875 21.4375 C-20.450625 21.623125 -21.21375 21.80875 -22 22 C-22.39168975 17.56084956 -21.31940842 14.77977668 -19 11 C-18.01 10.67 -17.02 10.34 -16 10 C-15.67 9.34 -15.34 8.68 -15 8 C-14 6 -14 6 -11 5 C-10.505 4.175 -10.01 3.35 -9.5 2.5 C-7.04797038 -1.58671603 -4.21266976 -1.40422325 0 0 Z " fill="#DECFAC" transform="translate(229,157)"/>
<path d="M0 0 C1.98 0.99 1.98 0.99 4 2 C4 2.33 4 2.66 4 3 C-42.2 3 -88.4 3 -136 3 C-132.05659247 1.02829623 -130.71721031 0.75744097 -126.50775146 0.79745483 C-125.39158447 0.80311966 -124.27541748 0.80878448 -123.12542725 0.81462097 C-121.90551086 0.83116226 -120.68559448 0.84770355 -119.42871094 0.86474609 C-118.14065552 0.87420761 -116.8526001 0.88366913 -115.5255127 0.89341736 C-111.99681004 0.9195675 -108.46834235 0.95823446 -104.93978405 0.99914122 C-101.25095424 1.03977987 -97.56203409 1.06891806 -93.87310791 1.09927368 C-86.88911974 1.15849274 -79.9052745 1.22806161 -72.92142129 1.30134451 C-64.96991719 1.38427754 -57.01832264 1.45567945 -49.0666995 1.52611041 C-32.71099799 1.67123842 -16.35547114 1.830855 0 2 C0 1.34 0 0.68 0 0 Z " fill="#ACA48E" transform="translate(190,220)"/>
<path d="M0 0 C0.33 0 0.66 0 1 0 C1 16.83 1 33.66 1 51 C-5.93 53.475 -5.93 53.475 -13 56 C-16.80052383 58.27286229 -20.41152928 60.45877686 -24 63 C-24 62.01 -24 61.02 -24 60 C-23.01 60 -22.02 60 -21 60 C-21.495 58.515 -21.495 58.515 -22 57 C-20.1875 55.9375 -20.1875 55.9375 -18 55 C-17.01 55.33 -16.02 55.66 -15 56 C-15 55.34 -15 54.68 -15 54 C-13.68 54 -12.36 54 -11 54 C-10.67 53.01 -10.34 52.02 -10 51 C-9.071875 50.87625 -8.14375 50.7525 -7.1875 50.625 C-3.86074765 50.18466918 -3.86074765 50.18466918 -1 48 C-0.52454116 45.86668405 -0.52454116 45.86668405 -0.56762695 43.36669922 C-0.54783279 42.40585419 -0.52803864 41.44500916 -0.50764465 40.45504761 C-0.49805977 38.89561935 -0.49805977 38.89561935 -0.48828125 37.3046875 C-0.47033005 36.24210724 -0.45237885 35.17952698 -0.43388367 34.08474731 C-0.37957998 30.68153893 -0.34582037 27.27847236 -0.3125 23.875 C-0.27934468 21.57159476 -0.24485671 19.26820828 -0.20898438 16.96484375 C-0.12384223 11.31002301 -0.05557768 5.65518436 0 0 Z " fill="#CFCCB6" transform="translate(217,85)"/>
<path d="M0 0 C0.66 0 1.32 0 2 0 C2 0.66 2 1.32 2 2 C3.32 2.33 4.64 2.66 6 3 C5.67 3.66 5.34 4.32 5 5 C4.01 4.34 3.02 3.68 2 3 C2 3.66 2 4.32 2 5 C0.37414461 6.72847348 -1.28694065 8.36059862 -3 10 C-4.33214504 11.32670355 -5.66135367 12.65635935 -6.98828125 13.98828125 C-10.9921875 17.9921875 -14.99609375 21.99609375 -19 26 C-19.33 24.68 -19.66 23.36 -20 22 C-16.25 19 -16.25 19 -14 19 C-14 17.35 -14 15.7 -14 14 C-13.01 14 -12.02 14 -11 14 C-10.67 13.34 -10.34 12.68 -10 12 C-9.34 12.33 -8.68 12.66 -8 13 C-8.33 12.01 -8.66 11.02 -9 10 C-8.360625 9.79375 -7.72125 9.5875 -7.0625 9.375 C-4.65074923 8.10461791 -4.65074923 8.10461791 -4.25 4.875 C-4.1675 3.92625 -4.085 2.9775 -4 2 C-2.68 2.66 -1.36 3.32 0 4 C0 2.68 0 1.36 0 0 Z " fill="#D1CCB7" transform="translate(99,122)"/>
<path d="M0 0 C2.9375 0.1875 2.9375 0.1875 6 1 C7.125 2.9375 7.125 2.9375 8 5 C10.0335948 6.26804566 10.0335948 6.26804566 12 7 C12 8.65 12 10.3 12 12 C10.25 12.6875 10.25 12.6875 8 13 C5.75 11.75 5.75 11.75 4 10 C4 9.01 4 8.02 4 7 C3.360625 6.7525 2.72125 6.505 2.0625 6.25 C0 5 0 5 -0.8125 2.9375 C-0.874375 2.298125 -0.93625 1.65875 -1 1 C-0.67 0.67 -0.34 0.34 0 0 Z " fill="#E0CEAC" transform="translate(236,170)"/>
<path d="M0 0 C1.16945792 0.80847729 2.33550461 1.62189112 3.5 2.4375 C4.1496875 2.88996094 4.799375 3.34242188 5.46875 3.80859375 C6.22671875 4.39833984 6.22671875 4.39833984 7 5 C7 5.33 7 5.66 7 6 C5.35 6 3.7 6 2 6 C2.01160156 6.81597656 2.02320313 7.63195312 2.03515625 8.47265625 C2.0982824 16.76021732 1.92935863 25.03019738 1.625 33.3125 C1.59414307 34.33287354 1.56328613 35.35324707 1.53149414 36.40454102 C1.4927417 37.36030029 1.45398926 38.31605957 1.4140625 39.30078125 C1.3826416 40.15841064 1.3512207 41.01604004 1.31884766 41.8996582 C1 44 1 44 -1 46 C-3.625 46.125 -3.625 46.125 -6 46 C-5.360625 45.690625 -4.72125 45.38125 -4.0625 45.0625 C-2.06389179 44.1654837 -2.06389179 44.1654837 -1 43 C-0.87814857 41.65016252 -0.82233169 40.29425299 -0.79467773 38.93920898 C-0.77473251 38.07839218 -0.75478729 37.21757538 -0.73423767 36.33067322 C-0.70916893 34.92755638 -0.70916893 34.92755638 -0.68359375 33.49609375 C-0.66281265 32.54307877 -0.64203156 31.59006378 -0.62062073 30.60816956 C-0.55501823 27.5513559 -0.49619082 24.49445344 -0.4375 21.4375 C-0.39432494 19.37043337 -0.35071099 17.30337586 -0.30664062 15.23632812 C-0.19932599 10.15764405 -0.09808909 5.0788703 0 0 Z " fill="#53748E" transform="translate(230,172)"/>
<path d="M0 0 C0.66 0 1.32 0 2 0 C2 5.28 2 10.56 2 16 C1.34 15.67 0.68 15.34 0 15 C-0.73075648 12.6859378 -1.40138258 10.35171131 -2 8 C-3.65 9.65 -5.3 11.3 -7 13 C-8.32 12.34 -9.64 11.68 -11 11 C-10.45730469 10.54109375 -9.91460937 10.0821875 -9.35546875 9.609375 C-8.64003906 8.99578125 -7.92460937 8.3821875 -7.1875 7.75 C-6.47980469 7.14671875 -5.77210938 6.5434375 -5.04296875 5.921875 C-2.94002444 4.06082782 -2.94002444 4.06082782 -1.36328125 1.765625 C-0.91339844 1.18296875 -0.46351563 0.6003125 0 0 Z " fill="#44729A" transform="translate(218,172)"/>
<path d="M0 0 C3.54420103 1.26578608 5.078405 3.15401244 7.625 5.9375 C9.05714624 7.3803339 10.4949295 8.81758845 11.9375 10.25 C13.16666667 11.47916667 14.39583333 12.70833333 15.625 13.9375 C12.625 13.9375 12.625 13.9375 10.36328125 12.0390625 C9.56277344 11.22179687 8.76226562 10.40453125 7.9375 9.5625 C6.72513672 8.34433594 6.72513672 8.34433594 5.48828125 7.1015625 C3.625 4.9375 3.625 4.9375 3.625 2.9375 C0.985 2.9375 -1.655 2.9375 -4.375 2.9375 C-4.6225 3.741875 -4.87 4.54625 -5.125 5.375 C-5.5375 6.220625 -5.95 7.06625 -6.375 7.9375 C-7.70833333 8.27083333 -9.04166667 8.60416667 -10.375 8.9375 C-11.67160434 11.42784386 -11.67160434 11.42784386 -12.375 13.9375 C-13.365 13.6075 -14.355 13.2775 -15.375 12.9375 C-14.715 11.9475 -14.055 10.9575 -13.375 9.9375 C-12.715 9.9375 -12.055 9.9375 -11.375 9.9375 C-11.375 9.2775 -11.375 8.6175 -11.375 7.9375 C-10.715 7.9375 -10.055 7.9375 -9.375 7.9375 C-9.375 7.2775 -9.375 6.6175 -9.375 5.9375 C-8.715 5.9375 -8.055 5.9375 -7.375 5.9375 C-7.375 5.2775 -7.375 4.6175 -7.375 3.9375 C-6.715 3.9375 -6.055 3.9375 -5.375 3.9375 C-5.375 3.2775 -5.375 2.6175 -5.375 1.9375 C-2.375 -0.0625 -2.375 -0.0625 0 0 Z " fill="#CBCEBF" transform="translate(225.375,154.0625)"/>
<path d="M0 0 C3.57410307 1.69769896 5.14444892 4.02433141 7.5 7.1875 C6.18 7.5175 4.86 7.8475 3.5 8.1875 C2.84 6.2075 2.18 4.2275 1.5 2.1875 C0.51 2.6825 0.51 2.6825 -0.5 3.1875 C-0.190625 4.363125 -0.190625 4.363125 0.125 5.5625 C0.24875 6.42875 0.3725 7.295 0.5 8.1875 C-0.16 8.8475 -0.82 9.5075 -1.5 10.1875 C-2.49 8.8675 -3.48 7.5475 -4.5 6.1875 C-4.17 8.4975 -3.84 10.8075 -3.5 13.1875 C-5.5 12 -5.5 12 -7.5 10.1875 C-8.0625 7.8125 -8.0625 7.8125 -7.5 5.1875 C-3.76801153 0.28260086 -3.76801153 0.28260086 0 0 Z " fill="#37719E" transform="translate(63.5,49.8125)"/>
<path d="M0 0 C3.48637192 2.20566387 4.85503493 4.51212317 7.0625 7.9375 C8.0525 7.9375 9.0425 7.9375 10.0625 7.9375 C10.0625 7.2775 10.0625 6.6175 10.0625 5.9375 C11.0525 5.9375 12.0425 5.9375 13.0625 5.9375 C11.69266497 9.09865776 11.0734362 9.9302092 8.0625 11.9375 C6.72320495 10.65201591 5.39121357 9.35891845 4.0625 8.0625 C3.32 7.34320313 2.5775 6.62390625 1.8125 5.8828125 C0.0625 3.9375 0.0625 3.9375 0.0625 1.9375 C-4.33864397 2.44048788 -6.64945019 4.02522731 -9.9375 6.9375 C-9.6075 5.2875 -9.2775 3.6375 -8.9375 1.9375 C-7.9475 1.9375 -6.9575 1.9375 -5.9375 1.9375 C-5.9375 1.2775 -5.9375 0.6175 -5.9375 -0.0625 C-2.9375 -1.0625 -2.9375 -1.0625 0 0 Z " fill="#C8D0C1" transform="translate(65.9375,95.0625)"/>
<path d="M0 0 C0.66 0.99 1.32 1.98 2 3 C-1.72346836 7.42094803 -5.29521038 11.57833482 -10 15 C-9.67 13.35 -9.34 11.7 -9 10 C-8.34 10 -7.68 10 -7 10 C-6.87625 9.2575 -6.7525 8.515 -6.625 7.75 C-6.02877475 5.1266089 -5.50802614 3.22235432 -4 1 C-1.875 0.25 -1.875 0.25 0 0 Z " fill="#D0CCB5" transform="translate(98,77)"/>
<path d="M0 0 C0.99 0.33 1.98 0.66 3 1 C3 1.66 3 2.32 3 3 C2.34 3 1.68 3 1 3 C1 3.66 1 4.32 1 5 C-0.875 7.125 -0.875 7.125 -3 9 C-3.66 9 -4.32 9 -5 9 C-5 9.66 -5 10.32 -5 11 C-5.66 11 -6.32 11 -7 11 C-7.66 12.32 -8.32 13.64 -9 15 C-9.66 15 -10.32 15 -11 15 C-11 15.66 -11 16.32 -11 17 C-11.66 17 -12.32 17 -13 17 C-12.33333333 15.66666667 -11.66666667 14.33333333 -11 13 C-10.566875 11.948125 -10.13375 10.89625 -9.6875 9.8125 C-8 7 -8 7 -5.3125 6.125 C-4.549375 6.08375 -3.78625 6.0425 -3 6 C-3 5.01 -3 4.02 -3 3 C-2.01 3 -1.02 3 0 3 C0 2.01 0 1.02 0 0 Z " fill="#4C7596" transform="translate(92,102)"/>
<path d="M0 0 C3.41459553 1.13819851 4.3324158 2.24005518 6.625 4.9375 C7.23601562 5.64777344 7.84703125 6.35804687 8.4765625 7.08984375 C10 9 10 9 11 11 C8.53199953 9.84826645 6.95216435 8.95216435 5 7 C3.35008418 6.29289322 1.68437744 5.62056011 0 5 C0 4.34 0 3.68 0 3 C-3.2542015 5.83430453 -4.5206753 7.68607774 -5 12 C-5.66 11.67 -6.32 11.34 -7 11 C-7.4375 8.875 -7.4375 8.875 -7 6 C-4.95580695 3.60411783 -2.74197701 1.56181132 0 0 Z " fill="#4B718E" transform="translate(63,96)"/>
<path d="M0 0 C0.66 0 1.32 0 2 0 C2.33 0.66 2.66 1.32 3 2 C3.99 2.33 4.98 2.66 6 3 C5.8125 4.875 5.8125 4.875 5 7 C2.10888212 8.52164099 0.28176588 9 -3 9 C-2.25 2.25 -2.25 2.25 0 0 Z " fill="#3773A3" transform="translate(61,99)"/>
<path d="M0 0 C2.57966596 2.57966596 3.33609844 5.09307892 4.625 8.5 C5.29402344 10.24796875 5.29402344 10.24796875 5.9765625 12.03125 C7 15 7 15 7 17 C5.35 17.33 3.7 17.66 2 18 C2 17.34 2 16.68 2 16 C1.34 16 0.68 16 0 16 C0.875 12.125 0.875 12.125 2 11 C1.34 10.67 0.68 10.34 0 10 C0 6.7 0 3.4 0 0 Z " fill="#A6997A" transform="translate(177,196)"/>
<path d="M0 0 C2.31 0.33 4.62 0.66 7 1 C4.68116787 5.50884026 1.93548431 7.93906776 -2 11 C-2.33 9.35 -2.66 7.7 -3 6 C-2.34 6 -1.68 6 -1 6 C-0.67 4.02 -0.34 2.04 0 0 Z " fill="#3D72A4" transform="translate(94,142)"/>
<path d="M0 0 C0 3 0 3 -1.8125 4.875 C-2.534375 5.57625 -3.25625 6.2775 -4 7 C-4.495 7.886875 -4.99 8.77375 -5.5 9.6875 C-7 12 -7 12 -9.0625 12.5 C-9.701875 12.665 -10.34125 12.83 -11 13 C-11.309375 13.804375 -11.61875 14.60875 -11.9375 15.4375 C-13 18 -13 18 -15.625 19.3125 C-16.40875 19.539375 -17.1925 19.76625 -18 20 C-18 19.34 -18 18.68 -18 18 C-17.34 18 -16.68 18 -16 18 C-15.34 16.68 -14.68 15.36 -14 14 C-13.34 14 -12.68 14 -12 14 C-12 13.34 -12 12.68 -12 12 C-11.34 12 -10.68 12 -10 12 C-9.75507812 11.42765625 -9.51015625 10.8553125 -9.2578125 10.265625 C-7.78889901 7.61975598 -6.04651756 5.85146861 -3.875 3.75 C-3.15054688 3.04359375 -2.42609375 2.3371875 -1.6796875 1.609375 C-1.12539062 1.07828125 -0.57109375 0.5471875 0 0 Z " fill="#C9CDC3" transform="translate(105,93)"/>
<path d="M0 0 C2.99324263 1.0975223 3.84610901 1.67682892 5.25 4.625 C5.4975 5.40875 5.745 6.1925 6 7 C4.576875 7.8971875 4.576875 7.8971875 3.125 8.8125 C-0.13964197 10.81562526 -0.13964197 10.81562526 -2 14 C-1.34 14 -0.68 14 0 14 C0 14.99 0 15.98 0 17 C-1.65 16.67 -3.3 16.34 -5 16 C-5.33 16.66 -5.66 17.32 -6 18 C-6.66 17.67 -7.32 17.34 -8 17 C-6.89718873 15.72799029 -5.79269231 14.45744147 -4.6875 13.1875 C-4.07261719 12.47980469 -3.45773438 11.77210938 -2.82421875 11.04296875 C-1.26665665 9.29863261 0.32658875 7.63221959 2 6 C1.34 4.02 0.68 2.04 0 0 Z " fill="#CCCDBD" transform="translate(107,129)"/>
<path d="M0 0 C1.32 0.33 2.64 0.66 4 1 C3.154375 1.70125 2.30875 2.4025 1.4375 3.125 C-1.32432103 5.76927071 -1.32432103 5.76927071 -1.0625 9.125 C0.115976 12.31381742 1.10294225 13.31783743 4 15 C2.35 15 0.7 15 -1 15 C-1.33 14.01 -1.66 13.02 -2 12 C-2.66 12 -3.32 12 -4 12 C-4.8125 9.9375 -4.8125 9.9375 -5 7 C-3.58973707 4.45310725 -1.86023965 2.23357494 0 0 Z " fill="#457395" transform="translate(202,171)"/>
<path d="M0 0 C0.66 0.33 1.32 0.66 2 1 C0.7625 2.0828125 0.7625 2.0828125 -0.5 3.1875 C-3.18797224 5.72393556 -3.18797224 5.72393556 -3.5 8.6875 C-3.20110118 11.36862189 -3.20110118 11.36862189 0 13 C0 13.66 0 14.32 0 15 C0.66 15 1.32 15 2 15 C2 15.66 2 16.32 2 17 C-0.3125 16.8125 -0.3125 16.8125 -3 16 C-5.02131621 13.49077988 -5.897267 11.6848867 -6.375 8.5 C-5.90712461 5.38083074 -4.88598102 3.51464136 -3 1 C-2.01 0.67 -1.02 0.34 0 0 Z " fill="#C2CABD" transform="translate(60,143)"/>
<path d="M0 0 C0 0.99 0 1.98 0 3 C-0.928125 3.8971875 -0.928125 3.8971875 -1.875 4.8125 C-4.37326743 7.38424589 -5.06681077 9.57830617 -6 13 C-6.99 13 -7.98 13 -9 13 C-9.33 13.99 -9.66 14.98 -10 16 C-10.99 15.34 -11.98 14.68 -13 14 C-8.71 9.38 -4.42 4.76 0 0 Z " fill="#4A719A" transform="translate(87,93)"/>
<path d="M0 0 C4.29951803 1.59241408 6.39671947 4.35540725 9 8 C8.67 8.99 8.34 9.98 8 11 C7.34 10.01 6.68 9.02 6 8 C4.10244856 5.65026182 4.10244856 5.65026182 0.875 5.875 C-0.07375 5.91625 -1.0225 5.9575 -2 6 C-2.33 5.01 -2.66 4.02 -3 3 C-2.01 2.67 -1.02 2.34 0 2 C0 1.34 0 0.68 0 0 Z " fill="#497598" transform="translate(101,125)"/>
<path d="M0 0 C1.32 0.33 2.64 0.66 4 1 C3.7834375 2.0209375 3.7834375 2.0209375 3.5625 3.0625 C4.25200029 7.69200195 7.60181468 9.99191249 11 13 C6.28571429 13 6.28571429 13 4 12 C1.55215564 8.10158121 0.5413 4.54692 0 0 Z " fill="#D1CFBC" transform="translate(53,54)"/>
<path d="M0 0 C2.475 0.495 2.475 0.495 5 1 C5 1.66 5 2.32 5 3 C5.78375 3.37125 6.5675 3.7425 7.375 4.125 C10.6580174 6.47001243 11.20760943 8.20141368 11.99609375 12.05859375 C12 14 12 14 10.125 16.5 C9.42375 16.995 8.7225 17.49 8 18 C8.350625 16.865625 8.70125 15.73125 9.0625 14.5625 C9.48911144 12.34206851 9.48911144 12.34206851 9 10 C6.88412861 7.26984336 4.58187835 5.07974821 2.00390625 2.78515625 C1.34261719 2.19605469 0.68132812 1.60695312 0 1 C0 0.67 0 0.34 0 0 Z " fill="#4C7493" transform="translate(240,167)"/>
<path d="M0 0 C0.66 1.32 1.32 2.64 2 4 C-1 6 -1 6 -3.0625 6.8125 C-5.67564428 8.41410456 -6.09774983 10.14287448 -7 13 C-8.32 12.67 -9.64 12.34 -11 12 C-9.54234835 10.37438849 -8.08385614 8.74953066 -6.625 7.125 C-5.81289062 6.22007812 -5.00078125 5.31515625 -4.1640625 4.3828125 C-2.80923795 2.89103817 -1.42494565 1.42494565 0 0 Z " fill="#CACDBC" transform="translate(88,157)"/>
<path d="M0 0 C1.12588014 0.95729916 2.2506715 1.91587895 3.375 2.875 C4.00148438 3.40867187 4.62796875 3.94234375 5.2734375 4.4921875 C6.55836651 5.61432007 7.79371975 6.79371975 9 8 C12.09926819 7.67801034 12.09926819 7.67801034 15 7 C14.34 8.32 13.68 9.64 13 11 C9.6341541 10.43902568 7.01888813 9.56149386 4 8 C3.34 8 2.68 8 2 8 C2 6.68 2 5.36 2 4 C1.01 3.34 0.02 2.68 -1 2 C-0.67 1.34 -0.34 0.68 0 0 Z " fill="#CED0BE" transform="translate(63,114)"/>
<path d="M0 0 C0.66 0.99 1.32 1.98 2 3 C1.67 3.99 1.34 4.98 1 6 C-1.0625 6.6875 -1.0625 6.6875 -3 7 C-3.33 8.98 -3.66 10.96 -4 13 C-4.66 13 -5.32 13 -6 13 C-6 14.32 -6 15.64 -6 17 C-6.66 16.67 -7.32 16.34 -8 16 C-5.84624464 10.20319036 -3.67811849 4.99173224 0 0 Z " fill="#487196" transform="translate(186,156)"/>
<path d="M0 0 C0 3 0 3 -2.3125 5.5 C-3.74806858 6.83541263 -5.18430095 8.17012396 -6.625 9.5 C-8.18133423 11.08199348 -8.18133423 11.08199348 -9.5 13.6875 C-9.995 14.450625 -10.49 15.21375 -11 16 C-11.99 16 -12.98 16 -14 16 C-14 15.34 -14 14.68 -14 14 C-13.34 14 -12.68 14 -12 14 C-11.66355469 13.17242187 -11.66355469 13.17242187 -11.3203125 12.328125 C-9.59614817 9.28788256 -7.37484178 7.18574327 -4.875 4.75 C-3.96492188 3.85796875 -3.05484375 2.9659375 -2.1171875 2.046875 C-1.41851562 1.37140625 -0.71984375 0.6959375 0 0 Z " fill="#4B7292" transform="translate(91,136)"/>
<path d="M0 0 C0.66 0.99 1.32 1.98 2 3 C1.125 5.5 1.125 5.5 0 8 C-0.2773501 11.18490007 -0.2773501 11.18490007 2 14 C1.401875 13.690625 0.80375 13.38125 0.1875 13.0625 C-2.08956772 11.89790296 -2.08956772 11.89790296 -5 11 C-3.77472971 6.94718288 -2.30119506 3.55639236 0 0 Z " fill="#D6CFB4" transform="translate(106,68)"/>
<path d="M0 0 C0.721875 0.804375 1.44375 1.60875 2.1875 2.4375 C5.02515689 5.02292072 6.27166147 5.68042813 10 6 C9.67 5.01 9.34 4.02 9 3 C9.99 3.33 10.98 3.66 12 4 C10.48601545 7.78496138 9.9855604 8.0072198 6 10 C3.69 7.36 1.38 4.72 -1 2 C-0.67 1.34 -0.34 0.68 0 0 Z " fill="#CACEBF" transform="translate(67,50)"/>
<path d="M0 0 C2.16874252 0.50603992 3.99967627 0.99983813 6 2 C6.268125 2.886875 6.53625 3.77375 6.8125 4.6875 C8.25507487 8.71152462 10.14972488 10.84969592 13 14 C10.08719163 12.69425831 8.19705507 11.2925792 6 9 C5.01 8.34 4.02 7.68 3 7 C3.33 5.68 3.66 4.36 4 3 C2.35 2.67 0.7 2.34 -1 2 C-0.67 1.34 -0.34 0.68 0 0 Z " fill="#CDCEBC" transform="translate(50,100)"/>
<path d="M0 0 C0.66 0 1.32 0 2 0 C2 5.28 2 10.56 2 16 C1.34 15.67 0.68 15.34 0 15 C-1.23098442 11.0832314 -0.83220851 7.97610732 0 4 C-0.66 3.67 -1.32 3.34 -2 3 C-1.34 2.01 -0.68 1.02 0 0 Z " fill="#456F8D" transform="translate(218,172)"/>
<path d="M0 0 C2.33524782 2.25740623 4.18705073 4.2805761 6 7 C8.56282742 7.72965366 8.56282742 7.72965366 11 8 C11 8.66 11 9.32 11 10 C10.34 10 9.68 10 9 10 C9 10.66 9 11.32 9 12 C7 12 7 12 5.2734375 10.3203125 C4.64695312 9.59585938 4.02046875 8.87140625 3.375 8.125 C2.74335937 7.40570313 2.11171875 6.68640625 1.4609375 5.9453125 C0 4 0 4 0 2 C-0.66 1.67 -1.32 1.34 -2 1 C-1.34 0.67 -0.68 0.34 0 0 Z " fill="#C6CEBE" transform="translate(66,142)"/>
<path d="M0 0 C0.99 0 1.98 0 3 0 C2.84595887 5.08335725 -0.02068432 7.35754718 -3.50390625 10.64453125 C-3.99761719 11.09183594 -4.49132812 11.53914062 -5 12 C-5.33 10.68 -5.66 9.36 -6 8 C-2.25 5 -2.25 5 0 5 C0 3.35 0 1.7 0 0 Z " fill="#D4D3BC" transform="translate(85,136)"/>
<path d="M0 0 C2.97 0.495 2.97 0.495 6 1 C6.0309375 1.8971875 6.0309375 1.8971875 6.0625 2.8125 C6.90456616 5.43314602 6.90456616 5.43314602 10.5625 6.75 C11.696875 7.1625 12.83125 7.575 14 8 C13.67 8.66 13.34 9.32 13 10 C8.61560205 9.50857886 6.69757655 8.17446868 3.6875 5 C2.99011719 4.278125 2.29273437 3.55625 1.57421875 2.8125 C0 1 0 1 0 0 Z " fill="#4D748F" transform="translate(63,113)"/>
<path d="M0 0 C0.66 0.33 1.32 0.66 2 1 C2 1.99 2 2.98 2 4 C1.34 4 0.68 4 0 4 C0 4.66 0 5.32 0 6 C-4.75 8 -4.75 8 -7 8 C-6.34 6.68 -5.68 5.36 -5 4 C-4.34 4 -3.68 4 -3 4 C-3 3.34 -3 2.68 -3 2 C-2.01 1.34 -1.02 0.68 0 0 Z " fill="#897F65" transform="translate(13,5)"/>
<path d="M0 0 C0.48210937 0.42152344 0.96421875 0.84304687 1.4609375 1.27734375 C2.09257812 1.82519531 2.72421875 2.37304688 3.375 2.9375 C4.00148437 3.48277344 4.62796875 4.02804688 5.2734375 4.58984375 C6.95632334 6.06958624 6.95632334 6.06958624 9 7 C9 7.99 9 8.98 9 10 C8.01 9.67 7.02 9.34 6 9 C6 8.34 6 7.68 6 7 C5.4225 6.71125 4.845 6.4225 4.25 6.125 C2.16666667 5.08333333 0.08333333 4.04166667 -2 3 C-2 2.34 -2 1.68 -2 1 C-1.34 0.67 -0.68 0.34 0 0 Z " fill="#C3C9B9" transform="translate(231,170)"/>
<path d="M0 0 C0.33 0.66 0.66 1.32 1 2 C2.98 1.34 4.96 0.68 7 0 C6.06862408 1.29608947 5.1296434 2.58671632 4.1875 3.875 C3.66542969 4.59429687 3.14335937 5.31359375 2.60546875 6.0546875 C1 8 1 8 -2 10 C-2 9.01 -2 8.02 -2 7 C-1.34 7 -0.68 7 0 7 C-0.185625 6.030625 -0.37125 5.06125 -0.5625 4.0625 C-0.706875 3.051875 -0.85125 2.04125 -1 1 C-0.67 0.67 -0.34 0.34 0 0 Z " fill="#CCCFBB" transform="translate(186,148)"/>
<path d="M0 0 C3 1 3 1 4.1875 3.0625 C4.455625 3.701875 4.72375 4.34125 5 5 C3.906875 4.773125 2.81375 4.54625 1.6875 4.3125 C-1.84393683 3.63148876 -1.84393683 3.63148876 -3.8125 5.1875 C-5.04580213 7.06990851 -6.07951712 8.94661511 -7 11 C-7.4375 8.875 -7.4375 8.875 -7 6 C-4.95580695 3.60411783 -2.74197701 1.56181132 0 0 Z " fill="#506F8B" transform="translate(63,143)"/>
<path d="M0 0 C0.66 0.33 1.32 0.66 2 1 C1.6875 2.9375 1.6875 2.9375 1 5 C0.01 5.33 -0.98 5.66 -2 6 C-2 6.66 -2 7.32 -2 8 C-3.32 8.33 -4.64 8.66 -6 9 C-6.66 8.01 -7.32 7.02 -8 6 C-5.525 6.495 -5.525 6.495 -3 7 C-2.814375 5.824375 -2.814375 5.824375 -2.625 4.625 C-2 2 -2 2 0 0 Z " fill="#4D7598" transform="translate(79,68)"/>
<path d="M0 0 C1.65 0 3.3 0 5 0 C0.38373114 3.95680188 -2.84625334 6 -9 6 C-9 5.34 -9 4.68 -9 4 C-6.03 3.01 -3.06 2.02 0 1 C0 0.67 0 0.34 0 0 Z " fill="#3B5E7D" transform="translate(246,227)"/>
<path d="M0 0 C1 2 1 2 0.0625 5.125 C-0.288125 6.07375 -0.63875 7.0225 -1 8 C1.31 8 3.62 8 6 8 C4 10 4 10 1.5 10.3125 C0.2625 10.1578125 0.2625 10.1578125 -1 10 C-3 7 -3 7 -2.75 4.4375 C-2 2 -2 2 0 0 Z " fill="#C3CEC9" transform="translate(203,174)"/>
<path d="M0 0 C0 3.69418201 -1.28179295 5.77836178 -3 9 C-3.66 9 -4.32 9 -5 9 C-5.33 9.66 -5.66 10.32 -6 11 C-6 9.68 -6 8.36 -6 7 C-5.34 7 -4.68 7 -4 7 C-4 5.35 -4 3.7 -4 2 C-2.68 1.34 -1.36 0.68 0 0 Z " fill="#386084" transform="translate(269,206)"/>
<path d="M0 0 C2.64 0 5.28 0 8 0 C8 0.99 8 1.98 8 3 C8.66 3 9.32 3 10 3 C10 3.99 10 4.98 10 6 C6.40992874 4.66654496 3.20429093 3.1056769 0 1 C0 0.67 0 0.34 0 0 Z " fill="#345D7A" transform="translate(195,224)"/>
<path d="M0 0 C4.8 3.32307692 4.8 3.32307692 5.8125 6.75 C5.874375 7.4925 5.93625 8.235 6 9 C3.36 9 0.72 9 -2 9 C-0.68 8.34 0.64 7.68 2 7 C1.42415568 4.61435923 0.77772405 2.33317216 0 0 Z " fill="#A09A7F" transform="translate(184,213)"/>
<path d="M0 0 C1.32 0.33 2.64 0.66 4 1 C4 1.66 4 2.32 4 3 C5.32 3 6.64 3 8 3 C8 2.34 8 1.68 8 1 C8.99 1.33 9.98 1.66 11 2 C9.68 3.32 8.36 4.64 7 6 C3.63279613 4.60667426 2.0140476 3.0210714 0 0 Z " fill="#577B92" transform="translate(68,165)"/>
<path d="M0 0 C0.33 0.99 0.66 1.98 1 3 C0.01 4.485 0.01 4.485 -1 6 C-0.01 6.33 0.98 6.66 2 7 C0.02 7.99 0.02 7.99 -2 9 C-2.66 8.34 -3.32 7.68 -4 7 C-4 4 -4 4 -2 1.8125 C-1.34 1.214375 -0.68 0.61625 0 0 Z " fill="#CAC9B5" transform="translate(98,53)"/>
<path d="M0 0 C2.70931419 0.15481795 4.46584039 0.48172081 6.4453125 2.40234375 C7.67679642 3.89771708 8.8429837 5.4462924 10 7 C8.68 7.33 7.36 7.66 6 8 C4.515 5.03 4.515 5.03 3 2 C1.35 2.33 -0.3 2.66 -2 3 C-1.34 2.01 -0.68 1.02 0 0 Z " fill="#517792" transform="translate(61,50)"/>
<path d="M0 0 C5.57142857 5.14285714 5.57142857 5.14285714 6 9 C5.401875 8.79375 4.80375 8.5875 4.1875 8.375 C1.71549154 7.69328085 1.71549154 7.69328085 -1 10 C-0.649375 9.0925 -0.29875 8.185 0.0625 7.25 C0.96468779 4.12241564 1.13381507 2.94791919 0 0 Z " fill="#336081" transform="translate(263,153)"/>
<path d="M0 0 C1.14926266 0.95421808 2.29430541 1.91352045 3.4375 2.875 C4.07558594 3.40867188 4.71367187 3.94234375 5.37109375 4.4921875 C7 6 7 6 8 8 C5.69 8 3.38 8 1 8 C1.33 6.35 1.66 4.7 2 3 C1.34 3 0.68 3 0 3 C0 2.01 0 1.02 0 0 Z " fill="#3A6589" transform="translate(255,145)"/>
<path d="M0 0 C-1.5830577 4.2742558 -4.50568404 6.26531794 -8 9 C-8 7.35 -8 5.7 -8 4 C-7.01 4.33 -6.02 4.66 -5 5 C-5.33 4.01 -5.66 3.02 -6 2 C-2.25 0 -2.25 0 0 0 Z " fill="#C6CABE" transform="translate(96,130)"/>
<path d="M0 0 C3.45854519 3.45854519 4 7.21904213 4 12 C3.34 12 2.68 12 2 12 C0.00214565 7.8794254 -0.17835515 4.54805635 0 0 Z " fill="#325B7B" transform="translate(270,164)"/>
<path d="M0 0 C0.99 1.32 1.98 2.64 3 4 C0.03 6.475 0.03 6.475 -3 9 C-3.33 7.68 -3.66 6.36 -4 5 C-2.68 4.67 -1.36 4.34 0 4 C-0.33 3.01 -0.66 2.02 -1 1 C-0.67 0.67 -0.34 0.34 0 0 Z " fill="#46719C" transform="translate(89,150)"/>
<path d="M0 0 C0.99 0.33 1.98 0.66 3 1 C0.69 3.64 -1.62 6.28 -4 9 C-4.33 7.68 -4.66 6.36 -5 5 C-4.34 4.34 -3.68 3.68 -3 3 C-2.01 3 -1.02 3 0 3 C0 2.01 0 1.02 0 0 Z " fill="#4F7796" transform="translate(98,143)"/>
<path d="M0 0 C0.9075 0.804375 1.815 1.60875 2.75 2.4375 C5.10309908 4.41142671 6.86938046 5.63877467 10 6 C7.69 6.66 5.38 7.32 3 8 C3 6.68 3 5.36 3 4 C2.34 4 1.68 4 1 4 C0.67 2.68 0.34 1.36 0 0 Z " fill="#D1D3C0" transform="translate(67,165)"/>
<path d="M0 0 C6.52307692 1.47692308 6.52307692 1.47692308 8.9375 4.125 C9.288125 4.74375 9.63875 5.3625 10 6 C6.51329166 4.8905928 3.22515763 3.73662334 0 2 C0 1.34 0 0.68 0 0 Z " fill="#D9D4B8" transform="translate(57,159)"/>
<path d="M0 0 C0 0.66 0 1.32 0 2 C0.66 2.33 1.32 2.66 2 3 C1.34 4.32 0.68 5.64 0 7 C-1.65 5.02 -3.3 3.04 -5 1 C-2 0 -2 0 0 0 Z " fill="#47759A" transform="translate(67,158)"/>
<path d="M0 0 C2.4375 0.1875 2.4375 0.1875 5 1 C6.3125 3.0625 6.3125 3.0625 7 5 C6.01 4.34 5.02 3.68 4 3 C1.37468476 2.83286431 1.37468476 2.83286431 -1 3 C-1 3.66 -1 4.32 -1 5 C-1.66 5 -2.32 5 -3 5 C-1.125 1.125 -1.125 1.125 0 0 Z " fill="#CACDC0" transform="translate(100,30)"/>
<path d="M0 0 C1.32 0.33 2.64 0.66 4 1 C3.21625 1.7425 2.4325 2.485 1.625 3.25 C-0.56504531 5.54433318 -1.82731386 7.12158858 -3 10 C-2.25 3.375 -2.25 3.375 0 0 Z " fill="#436B89" transform="translate(202,171)"/>
<path d="M0 0 C1.65 0 3.3 0 5 0 C5 0.99 5 1.98 5 3 C4.34 3.66 3.68 4.32 3 5 C2.01 4.67 1.02 4.34 0 4 C0 2.68 0 1.36 0 0 Z " fill="#CFBC99" transform="translate(173,148)"/>
<path d="M0 0 C0.66 0.33 1.32 0.66 2 1 C-0.31 3.64 -2.62 6.28 -5 9 C-6 6 -6 6 -4.75 3.375 C-3 1 -3 1 0 0 Z " fill="#D0D5C8" transform="translate(60,143)"/>
<path d="M0 0 C2.3129482 2.3129482 2.49580975 3.47904875 3.125 6.625 C3.29257813 7.44226563 3.46015625 8.25953125 3.6328125 9.1015625 C3.81457031 10.04128906 3.81457031 10.04128906 4 11 C2.68 10.67 1.36 10.34 0 10 C0 6.7 0 3.4 0 0 Z " fill="#999889" transform="translate(177,196)"/>
<path d="M0 0 C-2.31 0.66 -4.62 1.32 -7 2 C-7 2.66 -7 3.32 -7 4 C-7.99 4.33 -8.98 4.66 -10 5 C-10.66 4.34 -11.32 3.68 -12 3 C-10.75823305 2.29773859 -9.50614401 1.61370891 -8.25 0.9375 C-7.20585937 0.36322266 -7.20585937 0.36322266 -6.140625 -0.22265625 C-3.63859372 -1.1312406 -2.4667645 -0.88336837 0 0 Z " fill="#4B7292" transform="translate(213,139)"/>
<path d="M0 0 C0.99 0.33 1.98 0.66 3 1 C2.01 2.98 1.02 4.96 0 7 C-1.32 6.67 -2.64 6.34 -4 6 C-2.68 4.02 -1.36 2.04 0 0 Z " fill="#D6D2B8" transform="translate(110,86)"/>
<path d="M0 0 C1.10868317 3.32604951 1.54177532 6.53058454 2 10 C0 8.8125 0 8.8125 -2 7 C-2.375 4.4375 -2.375 4.4375 -2 2 C-1.34 1.34 -0.68 0.68 0 0 Z " fill="#51758D" transform="translate(58,53)"/>
<path d="M0 0 C0.33 0.66 0.66 1.32 1 2 C0.67 2.66 0.34 3.32 0 4 C-0.66 4 -1.32 4 -2 4 C-2 4.66 -2 5.32 -2 6 C-1.01 6.33 -0.02 6.66 1 7 C-0.65 7.66 -2.3 8.32 -4 9 C-4.33 7.68 -4.66 6.36 -5 5 C-4.34 5 -3.68 5 -3 5 C-3 4.34 -3 3.68 -3 3 C-2.34 3 -1.68 3 -1 3 C-0.67 2.01 -0.34 1.02 0 0 Z " fill="#46759B" transform="translate(84,49)"/>
<path d="M0 0 C0.5775 0.45375 1.155 0.9075 1.75 1.375 C3.7800333 2.84113516 5.73539843 3.94857784 8 5 C4.94736336 5.98120464 3.05263664 5.98120464 0 5 C0 3.35 0 1.7 0 0 Z " fill="#51799C" transform="translate(239,180)"/>
<path d="M0 0 C0.99 0.33 1.98 0.66 3 1 C3.6875 3.0625 3.6875 3.0625 4 5 C3.01 5.33 2.02 5.66 1 6 C0.01 4.68 -0.98 3.36 -2 2 C-1.34 1.34 -0.68 0.68 0 0 Z " fill="#3773A6" transform="translate(102,33)"/>
<path d="M0 0 C0.99 0.33 1.98 0.66 3 1 C2.67 1.99 2.34 2.98 2 4 C2.66 4 3.32 4 4 4 C3.67 4.99 3.34 5.98 3 7 C2.01 6.34 1.02 5.68 0 5 C-0.1875 2.375 -0.1875 2.375 0 0 Z " fill="#477397" transform="translate(189,214)"/>
<path d="M0 0 C2.125 0.9375 2.125 0.9375 4 2 C1.03 4.475 1.03 4.475 -2 7 C-2 5.02 -2 3.04 -2 1 C-1.34 0.67 -0.68 0.34 0 0 Z " fill="#3E6B96" transform="translate(98,48)"/>
<path d="M0 0 C1.65 0 3.3 0 5 0 C5 0.99 5 1.98 5 3 C3 4.6875 3 4.6875 1 6 C0.67 4.02 0.34 2.04 0 0 Z " fill="#CFCBB7" transform="translate(87,39)"/>
<path d="M0 0 C1.9375 0.3125 1.9375 0.3125 4 1 C4.33 1.99 4.66 2.98 5 4 C3.35 4 1.7 4 0 4 C0 2.68 0 1.36 0 0 Z " fill="#E2CFA7" transform="translate(202,178)"/>
<path d="M0 0 C4.8 3.44615385 4.8 3.44615385 5.8125 6.25 C5.874375 6.8275 5.93625 7.405 6 8 C5.01 8.495 5.01 8.495 4 9 C3.896875 8.38125 3.79375 7.7625 3.6875 7.125 C3.12474627 4.63473516 3.12474627 4.63473516 0 3 C0 2.01 0 1.02 0 0 Z " fill="#4C718B" transform="translate(104,80)"/>
<path d="M0 0 C2.475 0.495 2.475 0.495 5 1 C5.33 1.99 5.66 2.98 6 4 C4.68 4.33 3.36 4.66 2 5 C1.34 3.35 0.68 1.7 0 0 Z " fill="#DFD4BC" transform="translate(200,5)"/>
<path d="M0 0 C3 1 3 1 3 1 Z " fill="#DFD1B2" transform="translate(77,235)"/>
</svg>
